Coordinates
version=1
nRows=7
nColumns=40
inDegrees=yes

Units are S.I. units (second, meters, Newtons, ...)
Angles are in degrees.

endheader
time	pelvis_tilt	pelvis_list	pelvis_rotation	pelvis_tx	pelvis_ty	pelvis_tz	hip_flexion_r	hip_adduction_r	hip_rotation_r	knee_angle_r	knee_angle_r_beta	ankle_angle_r	subtalar_angle_r	mtp_angle_r	hip_flexion_l	hip_adduction_l	hip_rotation_l	knee_angle_l	knee_angle_l_beta	ankle_angle_l	subtalar_angle_l	mtp_angle_l	lumbar_extension	lumbar_bending	lumbar_rotation	arm_flex_r	arm_add_r	arm_rot_r	elbow_flex_r	pro_sup_r	wrist_flex_r	wrist_dev_r	arm_flex_l	arm_add_l	arm_rot_l	elbow_flex_l	pro_sup_l	wrist_flex_l	wrist_dev_l
     32.59000000	     -4.04691245	     -4.73281233	     -3.72467548	      0.77115097	      0.93447377	      0.42604865	     31.17205824	     -4.88982103	     -8.38434523	     58.72368865	     58.72368865	      4.41829998	    -15.49250987	      2.74678315	     13.21358027	     -4.67368657	    -12.28085572	     19.57610761	     19.57610761	     12.83576537	     -7.28883888	     -3.38119516	     -9.97670497	      3.33596348	      0.34226920	     -3.65728754	    -13.77507771	     -1.28407744	     30.00966869	     46.23047985	      0.00000000	      0.00000000	     11.51125105	    -15.72341783	    -10.66484983	     63.16678021	     46.63725097	      0.00000000	      0.00000000
     32.60300000	     -3.94019710	     -4.72456239	     -4.00946994	      0.77046401	      0.93483961	      0.42631940	     31.64472287	     -4.68013199	     -8.49619207	     56.06513020	     56.06513020	      4.52103773	    -15.15023256	      2.37826580	     12.44746312	     -4.67216300	    -12.66073122	     19.27427054	     19.27427054	     13.09894923	     -7.03328848	     -3.50654316	    -10.12290943	      3.11162183	      0.20442757	     -5.13281595	    -14.03379189	     -1.50127124	     29.42580320	     46.25470781	      0.00000000	      0.00000000	     12.20781156	    -16.07737826	    -11.03249094	     64.28454231	     46.70154951	      0.00000000	      0.00000000
     32.61600000	     -3.85191818	     -4.75699410	     -4.28291377	      0.76977609	      0.93511584	      0.42659337	     31.93683856	     -4.40063147	     -8.67521428	     53.09837511	     53.09837511	      4.48070115	    -14.73145041	      1.92696538	     11.72048698	     -4.70896824	    -12.99872161	     19.00425851	     19.00425851	     13.39518836	     -6.76358946	     -3.63509149	    -10.22853933	      2.96103790	     -0.04479017	     -6.54060930	    -14.29522216	     -1.82244994	     28.93795675	     46.28348315	      0.00000000	      0.00000000	     12.83042352	    -16.49711705	    -11.42098341	     65.32972739	     46.76423685	      0.00000000	      0.00000000
     32.62900000	     -3.80671365	     -4.75986196	     -4.51725999	      0.76910577	      0.93524992	      0.42691048	     32.00056187	     -4.12142169	     -8.91947126	     49.66199033	     49.66199033	      3.42836261	    -14.69621251	     -1.09220336	     11.06986989	     -4.72399352	    -13.36722414	     18.77145823	     18.77145823	     13.73246356	     -6.38577757	     -3.68959639	    -10.30442317	      2.76688410	     -0.42683757	     -7.71697383	    -14.29966017	     -3.89970005	     28.33848474	     46.42615493	      0.00000000	      0.00000000	     13.18015502	    -16.84088119	    -12.14172586	     66.75508323	     46.94313409	      0.00000000	      0.00000000
     32.64200000	     -3.80877637	     -4.81337702	     -4.71095947	      0.76842636	      0.93525719	      0.42729640	     32.06361067	     -3.77717878	     -9.21881430	     46.30645567	     46.30645567	      3.51315866	    -13.91280630	     -0.68301192	     10.48533570	     -4.76723311	    -13.54828091	     18.52258825	     18.52258825	     13.96699145	     -6.28986292	     -3.75272343	    -10.30075926	      2.67990190	     -0.71044294	     -8.97084206	    -14.55648149	     -4.01756170	     27.86909497	     46.44212433	      0.00000000	      0.00000000	     13.81625152	    -17.30504893	    -12.36437727	     67.30103413	     46.97633106	      0.00000000	      0.00000000
     32.65500000	     -3.85620961	     -4.51450955	     -4.93195792	      0.76763259	      0.93482179	      0.42768502	     32.27814598	     -3.71047770	     -9.17931234	     43.10941783	     43.10941783	      3.48686802	    -13.20790669	     -0.24106437	     10.11452503	     -4.45598685	    -13.80374692	     18.53550720	     18.53550720	     14.22134025	     -6.31005976	     -3.89617671	    -10.16532164	      2.10525994	     -1.12747964	    -10.02808697	    -14.82876735	     -4.11173636	     27.48321923	     46.45579953	      0.00000000	      0.00000000	     14.45637181	    -17.83001632	    -12.57998944	     67.71449004	     47.00562612	      0.00000000	      0.00000000
     32.66800000	     -3.59271514	     -4.79544588	     -5.09633386	      0.76732070	      0.93529500	      0.42827564	     31.62452804	     -3.17553069	     -9.80070878	     39.33383564	     39.33383564	      3.42830194	    -11.69671462	      0.14266793	      9.02676824	     -4.69784528	    -14.07284941	     17.95367422	     17.95367422	     14.52811209	     -5.88183770	     -3.99500075	    -10.49830728	      2.26881371	     -0.97857335	    -11.24735192	    -15.03829763	     -4.40956096	     27.02737175	     46.48469207	      0.00000000	      0.00000000	     15.10928514	    -17.78867945	    -12.79407956	     68.79371355	     47.05256249	      0.00000000	      0.00000000
